<svg width="353" height="16" viewBox="0 0 353 16" fill="none" xmlns="http://www.w3.org/2000/svg">
<mask maskUnits="userSpaceOnUse" x="0" y="0" width="0" height="0" fill="black">
<rect fill="white" width="0" height="0"/>
</mask>
<path d="M0.934983 7.15538C0.544459 7.54591 0.544459 8.17907 0.934983 8.56959L7.29894 14.9336C7.68947 15.3241 8.32263 15.3241 8.71316 14.9336C9.10368 14.543 9.10368 13.9099 8.71316 13.5193L3.0563 7.86249L8.71316 2.20563C9.10368 1.81511 9.10368 1.18194 8.71316 0.791419C8.32263 0.400895 7.68947 0.400895 7.29894 0.791419L0.934983 7.15538ZM352.065 8.56956C352.455 8.17904 352.455 7.54587 352.065 7.15535L345.701 0.79139C345.31 0.400866 344.677 0.400866 344.287 0.79139C343.896 1.18191 343.896 1.81508 344.287 2.2056L349.944 7.86246L344.287 13.5193C343.896 13.9098 343.896 14.543 344.287 14.9335C344.677 15.324 345.31 15.324 345.701 14.9335L352.065 8.56956ZM1.64209 8.86249L351.358 8.86246L351.358 6.86246L1.64209 6.86249L1.64209 8.86249Z" fill="black" mask="url(#)"/>
</svg>
