<svg width="335" height="335" viewBox="0 0 335 335" fill="none" xmlns="http://www.w3.org/2000/svg">
<mask maskUnits="userSpaceOnUse" x="0" y="0" width="0" height="0" fill="black">
<rect fill="white" width="0" height="0"/>
</mask>
<path d="M334.676 31.7541C335.066 31.3636 335.066 30.7304 334.676 30.3399L328.312 23.9759C327.921 23.5854 327.288 23.5854 326.898 23.9759C326.507 24.3665 326.507 24.9996 326.898 25.3901L332.555 31.047L326.898 36.7039C326.507 37.0944 326.507 37.7275 326.898 38.1181C327.288 38.5086 327.921 38.5086 328.312 38.1181L334.676 31.7541ZM0.537766 30.3399C0.147242 30.7304 0.147242 31.3636 0.537766 31.7541L6.90173 38.118C7.29225 38.5086 7.92542 38.5086 8.31594 38.118C8.70646 37.7275 8.70646 37.0943 8.31594 36.7038L2.65909 31.047L8.31594 25.3901C8.70647 24.9996 8.70647 24.3664 8.31594 23.9759C7.92542 23.5854 7.29225 23.5854 6.90173 23.9759L0.537766 30.3399ZM333.969 30.047L1.24487 30.047L1.24487 32.047L333.969 32.047L333.969 30.047Z" fill="black" mask="url(#)"/>
<mask maskUnits="userSpaceOnUse" x="0" y="0" width="0" height="0" fill="black">
<rect fill="white" width="0" height="0"/>
</mask>
<path d="M334.676 56.7691C335.066 56.3786 335.066 55.7454 334.676 55.3549L328.312 48.9909C327.921 48.6004 327.288 48.6004 326.898 48.9909C326.507 49.3815 326.507 50.0146 326.898 50.4052L332.555 56.062L326.898 61.7189C326.507 62.1094 326.507 62.7426 326.898 63.1331C327.288 63.5236 327.921 63.5236 328.312 63.1331L334.676 56.7691ZM0.537766 55.3549C0.147242 55.7454 0.147242 56.3786 0.537766 56.7691L6.90173 63.1331C7.29225 63.5236 7.92542 63.5236 8.31594 63.1331C8.70646 62.7425 8.70646 62.1094 8.31594 61.7188L2.65909 56.062L8.31594 50.4051C8.70647 50.0146 8.70647 49.3814 8.31594 48.9909C7.92542 48.6004 7.29225 48.6004 6.90173 48.9909L0.537766 55.3549ZM333.969 55.062L1.24487 55.062L1.24487 57.062L333.969 57.062L333.969 55.062Z" fill="black" mask="url(#)"/>
<mask maskUnits="userSpaceOnUse" x="0" y="0" width="0" height="0" fill="black">
<rect fill="white" width="0" height="0"/>
</mask>
<path d="M334.676 81.7841C335.066 81.3936 335.066 80.7604 334.676 80.3699L328.312 74.006C327.921 73.6154 327.288 73.6154 326.898 74.006C326.507 74.3965 326.507 75.0296 326.898 75.4202L332.555 81.077L326.898 86.7339C326.507 87.1244 326.507 87.7576 326.898 88.1481C327.288 88.5386 327.921 88.5386 328.312 88.1481L334.676 81.7841ZM0.537766 80.3699C0.147242 80.7604 0.147242 81.3936 0.537766 81.7841L6.90173 88.1481C7.29225 88.5386 7.92542 88.5386 8.31594 88.1481C8.70646 87.7575 8.70646 87.1244 8.31594 86.7339L2.65909 81.077L8.31594 75.4201C8.70647 75.0296 8.70647 74.3965 8.31594 74.0059C7.92542 73.6154 7.29225 73.6154 6.90173 74.0059L0.537766 80.3699ZM333.969 80.077L1.24487 80.077L1.24487 82.077L333.969 82.077L333.969 80.077Z" fill="black" mask="url(#)"/>
<mask maskUnits="userSpaceOnUse" x="0" y="0" width="0" height="0" fill="black">
<rect fill="white" width="0" height="0"/>
</mask>
<path d="M334.676 106.799C335.066 106.409 335.066 105.775 334.676 105.385L328.312 99.0209C327.921 98.6303 327.288 98.6303 326.898 99.0209C326.507 99.4114 326.507 100.045 326.898 100.435L332.555 106.092L326.898 111.749C326.507 112.139 326.507 112.772 326.898 113.163C327.288 113.554 327.921 113.554 328.312 113.163L334.676 106.799ZM0.537766 105.385C0.147242 105.775 0.147242 106.408 0.537766 106.799L6.90173 113.163C7.29225 113.553 7.92542 113.553 8.31594 113.163C8.70646 112.772 8.70646 112.139 8.31594 111.749L2.65909 106.092L8.31594 100.435C8.70647 100.045 8.70647 99.4113 8.31594 99.0208C7.92542 98.6303 7.29225 98.6303 6.90173 99.0208L0.537766 105.385ZM333.969 105.092L1.24487 105.092L1.24487 107.092L333.969 107.092L333.969 105.092Z" fill="black" mask="url(#)"/>
<mask maskUnits="userSpaceOnUse" x="0" y="0" width="0" height="0" fill="black">
<rect fill="white" width="0" height="0"/>
</mask>
<path d="M334.676 131.814C335.066 131.424 335.066 130.79 334.676 130.4L328.312 124.036C327.921 123.645 327.288 123.645 326.898 124.036C326.507 124.426 326.507 125.06 326.898 125.45L332.555 131.107L326.898 136.764C326.507 137.154 326.507 137.787 326.898 138.178C327.288 138.569 327.921 138.569 328.312 138.178L334.676 131.814ZM0.537766 130.4C0.147242 130.79 0.147242 131.423 0.537766 131.814L6.90173 138.178C7.29225 138.568 7.92542 138.568 8.31594 138.178C8.70646 137.787 8.70646 137.154 8.31594 136.764L2.65909 131.107L8.31594 125.45C8.70647 125.06 8.70647 124.426 8.31594 124.036C7.92542 123.645 7.29225 123.645 6.90173 124.036L0.537766 130.4ZM333.969 130.107L1.24487 130.107L1.24487 132.107L333.969 132.107L333.969 130.107Z" fill="black" mask="url(#)"/>
<mask maskUnits="userSpaceOnUse" x="0" y="0" width="0" height="0" fill="black">
<rect fill="white" width="0" height="0"/>
</mask>
<path d="M334.676 156.829C335.066 156.438 335.066 155.805 334.676 155.415L328.312 149.051C327.921 148.66 327.288 148.66 326.898 149.051C326.507 149.441 326.507 150.074 326.898 150.465L332.555 156.122L326.898 161.779C326.507 162.169 326.507 162.802 326.898 163.193C327.288 163.583 327.921 163.583 328.312 163.193L334.676 156.829ZM0.537766 155.415C0.147242 155.805 0.147242 156.438 0.537766 156.829L6.90173 163.193C7.29225 163.583 7.92542 163.583 8.31594 163.193C8.70646 162.802 8.70646 162.169 8.31594 161.779L2.65909 156.122L8.31594 150.465C8.70647 150.074 8.70647 149.441 8.31594 149.051C7.92542 148.66 7.29225 148.66 6.90173 149.051L0.537766 155.415ZM333.969 155.122L1.24487 155.122L1.24487 157.122L333.969 157.122L333.969 155.122Z" fill="black" mask="url(#)"/>
<mask maskUnits="userSpaceOnUse" x="0" y="0" width="0" height="0" fill="black">
<rect fill="white" width="0" height="0"/>
</mask>
<path d="M334.676 181.844C335.066 181.453 335.066 180.82 334.676 180.43L328.312 174.066C327.921 173.675 327.288 173.675 326.898 174.066C326.507 174.456 326.507 175.089 326.898 175.48L332.555 181.137L326.898 186.794C326.507 187.184 326.507 187.817 326.898 188.208C327.288 188.598 327.921 188.598 328.312 188.208L334.676 181.844ZM0.537766 180.43C0.147242 180.82 0.147242 181.453 0.537766 181.844L6.90173 188.208C7.29225 188.598 7.92542 188.598 8.31594 188.208C8.70646 187.817 8.70646 187.184 8.31594 186.794L2.65909 181.137L8.31594 175.48C8.70647 175.089 8.70647 174.456 8.31594 174.066C7.92542 173.675 7.29225 173.675 6.90173 174.066L0.537766 180.43ZM333.969 180.137L1.24487 180.137L1.24487 182.137L333.969 182.137L333.969 180.137Z" fill="black" mask="url(#)"/>
<mask maskUnits="userSpaceOnUse" x="0" y="0" width="0" height="0" fill="black">
<rect fill="white" width="0" height="0"/>
</mask>
<path d="M334.676 206.859C335.066 206.468 335.066 205.835 334.676 205.445L328.312 199.081C327.921 198.69 327.288 198.69 326.898 199.081C326.507 199.471 326.507 200.104 326.898 200.495L332.555 206.152L326.898 211.809C326.507 212.199 326.507 212.832 326.898 213.223C327.288 213.613 327.921 213.613 328.312 213.223L334.676 206.859ZM0.537766 205.445C0.147242 205.835 0.147242 206.468 0.537766 206.859L6.90173 213.223C7.29225 213.613 7.92542 213.613 8.31594 213.223C8.70646 212.832 8.70646 212.199 8.31594 211.809L2.65909 206.152L8.31594 200.495C8.70647 200.104 8.70647 199.471 8.31594 199.081C7.92542 198.69 7.29225 198.69 6.90173 199.081L0.537766 205.445ZM333.969 205.152L1.24487 205.152L1.24487 207.152L333.969 207.152L333.969 205.152Z" fill="black" mask="url(#)"/>
<mask maskUnits="userSpaceOnUse" x="0" y="0" width="0" height="0" fill="black">
<rect fill="white" width="0" height="0"/>
</mask>
<path d="M334.676 231.874C335.066 231.483 335.066 230.85 334.676 230.46L328.312 224.096C327.921 223.705 327.288 223.705 326.898 224.096C326.507 224.486 326.507 225.119 326.898 225.51L332.555 231.167L326.898 236.824C326.507 237.214 326.507 237.847 326.898 238.238C327.288 238.628 327.921 238.628 328.312 238.238L334.676 231.874ZM0.537766 230.46C0.147242 230.85 0.147242 231.483 0.537766 231.874L6.90173 238.238C7.29225 238.628 7.92542 238.628 8.31594 238.238C8.70646 237.847 8.70646 237.214 8.31594 236.824L2.65909 231.167L8.31594 225.51C8.70647 225.119 8.70647 224.486 8.31594 224.096C7.92542 223.705 7.29225 223.705 6.90173 224.096L0.537766 230.46ZM333.969 230.167L1.24487 230.167L1.24487 232.167L333.969 232.167L333.969 230.167Z" fill="black" mask="url(#)"/>
<mask maskUnits="userSpaceOnUse" x="0" y="0" width="0" height="0" fill="black">
<rect fill="white" width="0" height="0"/>
</mask>
<path d="M334.676 256.889C335.066 256.498 335.066 255.865 334.676 255.475L328.312 249.111C327.921 248.72 327.288 248.72 326.898 249.111C326.507 249.501 326.507 250.134 326.898 250.525L332.555 256.182L326.898 261.838C326.507 262.229 326.507 262.862 326.898 263.253C327.288 263.643 327.921 263.643 328.312 263.253L334.676 256.889ZM0.537766 255.475C0.147242 255.865 0.147242 256.498 0.537766 256.889L6.90173 263.253C7.29225 263.643 7.92542 263.643 8.31594 263.253C8.70646 262.862 8.70646 262.229 8.31594 261.838L2.65909 256.182L8.31594 250.525C8.70647 250.134 8.70647 249.501 8.31594 249.111C7.92542 248.72 7.29225 248.72 6.90173 249.111L0.537766 255.475ZM333.969 255.182L1.24487 255.182L1.24487 257.182L333.969 257.182L333.969 255.182Z" fill="black" mask="url(#)"/>
<mask maskUnits="userSpaceOnUse" x="0" y="0" width="0" height="0" fill="black">
<rect fill="white" width="0" height="0"/>
</mask>
<path d="M334.676 281.904C335.066 281.513 335.066 280.88 334.676 280.489L328.312 274.125C327.921 273.735 327.288 273.735 326.898 274.125C326.507 274.516 326.507 275.149 326.898 275.54L332.555 281.197L326.898 286.853C326.507 287.244 326.507 287.877 326.898 288.268C327.288 288.658 327.921 288.658 328.312 288.268L334.676 281.904ZM0.537766 280.489C0.147242 280.88 0.147242 281.513 0.537766 281.904L6.90173 288.268C7.29225 288.658 7.92542 288.658 8.31594 288.268C8.70646 287.877 8.70646 287.244 8.31594 286.853L2.65909 281.197L8.31594 275.54C8.70647 275.149 8.70647 274.516 8.31594 274.125C7.92542 273.735 7.29225 273.735 6.90173 274.125L0.537766 280.489ZM333.969 280.197L1.24487 280.197L1.24487 282.197L333.969 282.197L333.969 280.197Z" fill="black" mask="url(#)"/>
<mask maskUnits="userSpaceOnUse" x="0" y="0" width="0" height="0" fill="black">
<rect fill="white" width="0" height="0"/>
</mask>
<path d="M334.676 306.919C335.066 306.528 335.066 305.895 334.676 305.504L328.312 299.14C327.921 298.75 327.288 298.75 326.898 299.14C326.507 299.531 326.507 300.164 326.898 300.555L332.555 306.212L326.898 311.868C326.507 312.259 326.507 312.892 326.898 313.283C327.288 313.673 327.921 313.673 328.312 313.283L334.676 306.919ZM0.537766 305.504C0.147242 305.895 0.147242 306.528 0.537766 306.919L6.90173 313.283C7.29225 313.673 7.92542 313.673 8.31594 313.283C8.70646 312.892 8.70646 312.259 8.31594 311.868L2.65909 306.212L8.31594 300.555C8.70647 300.164 8.70647 299.531 8.31594 299.14C7.92542 298.75 7.29225 298.75 6.90173 299.14L0.537766 305.504ZM333.969 305.212L1.24487 305.212L1.24487 307.212L333.969 307.212L333.969 305.212Z" fill="black" mask="url(#)"/>
<mask maskUnits="userSpaceOnUse" x="0" y="0" width="0" height="0" fill="black">
<rect fill="white" width="0" height="0"/>
</mask>
<path d="M303.482 334.698C303.872 335.089 304.506 335.089 304.896 334.698L311.26 328.334C311.651 327.944 311.651 327.311 311.26 326.92C310.87 326.53 310.236 326.53 309.846 326.92L304.189 332.577L298.532 326.92C298.142 326.53 297.508 326.53 297.118 326.92C296.727 327.311 296.727 327.944 297.118 328.334L303.482 334.698ZM304.896 0.560197C304.506 0.169672 303.872 0.169672 303.482 0.560196L297.118 6.92416C296.727 7.31468 296.727 7.94785 297.118 8.33837C297.508 8.72889 298.142 8.72889 298.532 8.33837L304.189 2.68152L309.846 8.33837C310.236 8.7289 310.87 8.7289 311.26 8.33837C311.651 7.94785 311.651 7.31468 311.26 6.92416L304.896 0.560197ZM305.189 333.991L305.189 1.2673L303.189 1.2673L303.189 333.991L305.189 333.991Z" fill="black" mask="url(#)"/>
<mask maskUnits="userSpaceOnUse" x="0" y="0" width="0" height="0" fill="black">
<rect fill="white" width="0" height="0"/>
</mask>
<path d="M278.467 334.698C278.858 335.089 279.491 335.089 279.881 334.698L286.245 328.334C286.636 327.944 286.636 327.311 286.245 326.92C285.855 326.53 285.222 326.53 284.831 326.92L279.174 332.577L273.517 326.92C273.127 326.53 272.494 326.53 272.103 326.92C271.713 327.311 271.713 327.944 272.103 328.334L278.467 334.698ZM279.881 0.560197C279.491 0.169672 278.858 0.169672 278.467 0.560196L272.103 6.92416C271.713 7.31468 271.713 7.94785 272.103 8.33837C272.494 8.72889 273.127 8.72889 273.518 8.33837L279.174 2.68152L284.831 8.33837C285.222 8.7289 285.855 8.7289 286.245 8.33837C286.636 7.94785 286.636 7.31468 286.245 6.92416L279.881 0.560197ZM280.174 333.991L280.174 1.2673L278.174 1.2673L278.174 333.991L280.174 333.991Z" fill="black" mask="url(#)"/>
<mask maskUnits="userSpaceOnUse" x="0" y="0" width="0" height="0" fill="black">
<rect fill="white" width="0" height="0"/>
</mask>
<path d="M253.452 334.698C253.843 335.089 254.476 335.089 254.866 334.698L261.23 328.334C261.621 327.944 261.621 327.311 261.23 326.92C260.84 326.53 260.207 326.53 259.816 326.92L254.159 332.577L248.502 326.92C248.112 326.53 247.479 326.53 247.088 326.92C246.698 327.311 246.698 327.944 247.088 328.334L253.452 334.698ZM254.866 0.560197C254.476 0.169672 253.843 0.169672 253.452 0.560196L247.088 6.92416C246.698 7.31468 246.698 7.94785 247.088 8.33837C247.479 8.72889 248.112 8.72889 248.502 8.33837L254.159 2.68152L259.816 8.33837C260.207 8.7289 260.84 8.7289 261.23 8.33837C261.621 7.94785 261.621 7.31468 261.23 6.92416L254.866 0.560197ZM255.159 333.991L255.159 1.2673L253.159 1.2673L253.159 333.991L255.159 333.991Z" fill="black" mask="url(#)"/>
<mask maskUnits="userSpaceOnUse" x="0" y="0" width="0" height="0" fill="black">
<rect fill="white" width="0" height="0"/>
</mask>
<path d="M228.437 334.698C228.827 335.089 229.461 335.089 229.851 334.698L236.215 328.334C236.606 327.944 236.606 327.311 236.215 326.92C235.825 326.53 235.191 326.53 234.801 326.92L229.144 332.577L223.487 326.92C223.097 326.53 222.464 326.53 222.073 326.92C221.682 327.311 221.682 327.944 222.073 328.334L228.437 334.698ZM229.851 0.560197C229.461 0.169672 228.828 0.169672 228.437 0.560196L222.073 6.92416C221.682 7.31468 221.682 7.94785 222.073 8.33837C222.464 8.72889 223.097 8.72889 223.487 8.33837L229.144 2.68152L234.801 8.33837C235.191 8.7289 235.825 8.7289 236.215 8.33837C236.606 7.94785 236.606 7.31468 236.215 6.92416L229.851 0.560197ZM230.144 333.991L230.144 1.2673L228.144 1.2673L228.144 333.991L230.144 333.991Z" fill="black" mask="url(#)"/>
<mask maskUnits="userSpaceOnUse" x="0" y="0" width="0" height="0" fill="black">
<rect fill="white" width="0" height="0"/>
</mask>
<path d="M203.422 334.698C203.813 335.089 204.446 335.089 204.837 334.698L211.2 328.334C211.591 327.944 211.591 327.311 211.2 326.92C210.81 326.53 210.177 326.53 209.786 326.92L204.129 332.577L198.473 326.92C198.082 326.53 197.449 326.53 197.058 326.92C196.668 327.311 196.668 327.944 197.058 328.334L203.422 334.698ZM204.837 0.560197C204.446 0.169672 203.813 0.169672 203.422 0.560196L197.058 6.92416C196.668 7.31468 196.668 7.94785 197.058 8.33837C197.449 8.72889 198.082 8.72889 198.473 8.33837L204.129 2.68152L209.786 8.33837C210.177 8.7289 210.81 8.7289 211.201 8.33837C211.591 7.94785 211.591 7.31468 211.201 6.92416L204.837 0.560197ZM205.129 333.991L205.129 1.2673L203.129 1.2673L203.129 333.991L205.129 333.991Z" fill="black" mask="url(#)"/>
<mask maskUnits="userSpaceOnUse" x="0" y="0" width="0" height="0" fill="black">
<rect fill="white" width="0" height="0"/>
</mask>
<path d="M178.407 334.698C178.798 335.089 179.431 335.089 179.821 334.698L186.185 328.334C186.576 327.944 186.576 327.311 186.185 326.92C185.795 326.53 185.162 326.53 184.771 326.92L179.114 332.577L173.457 326.92C173.067 326.53 172.434 326.53 172.043 326.92C171.653 327.311 171.653 327.944 172.043 328.334L178.407 334.698ZM179.821 0.560197C179.431 0.169672 178.798 0.169672 178.407 0.560196L172.043 6.92416C171.653 7.31468 171.653 7.94785 172.043 8.33837C172.434 8.72889 173.067 8.72889 173.457 8.33837L179.114 2.68152L184.771 8.33837C185.162 8.7289 185.795 8.7289 186.185 8.33837C186.576 7.94785 186.576 7.31468 186.185 6.92416L179.821 0.560197ZM180.114 333.991L180.114 1.2673L178.114 1.2673L178.114 333.991L180.114 333.991Z" fill="black" mask="url(#)"/>
<mask maskUnits="userSpaceOnUse" x="0" y="0" width="0" height="0" fill="black">
<rect fill="white" width="0" height="0"/>
</mask>
<path d="M153.393 334.698C153.783 335.089 154.416 335.089 154.807 334.698L161.171 328.334C161.561 327.944 161.561 327.311 161.171 326.92C160.78 326.53 160.147 326.53 159.756 326.92L154.1 332.577L148.443 326.92C148.052 326.53 147.419 326.53 147.029 326.92C146.638 327.311 146.638 327.944 147.029 328.334L153.393 334.698ZM154.807 0.560197C154.416 0.169672 153.783 0.169672 153.393 0.560196L147.029 6.92416C146.638 7.31468 146.638 7.94785 147.029 8.33837C147.419 8.72889 148.052 8.72889 148.443 8.33837L154.1 2.68152L159.757 8.33837C160.147 8.7289 160.78 8.7289 161.171 8.33837C161.561 7.94785 161.561 7.31468 161.171 6.92416L154.807 0.560197ZM155.1 333.991L155.1 1.2673L153.1 1.2673L153.1 333.991L155.1 333.991Z" fill="black" mask="url(#)"/>
<mask maskUnits="userSpaceOnUse" x="0" y="0" width="0" height="0" fill="black">
<rect fill="white" width="0" height="0"/>
</mask>
<path d="M128.377 334.698C128.768 335.089 129.401 335.089 129.792 334.698L136.156 328.334C136.546 327.944 136.546 327.311 136.156 326.92C135.765 326.53 135.132 326.53 134.741 326.92L129.084 332.577L123.428 326.92C123.037 326.53 122.404 326.53 122.013 326.92C121.623 327.311 121.623 327.944 122.013 328.334L128.377 334.698ZM129.792 0.560197C129.401 0.169672 128.768 0.169672 128.377 0.560196L122.013 6.92416C121.623 7.31468 121.623 7.94785 122.013 8.33837C122.404 8.72889 123.037 8.72889 123.428 8.33837L129.085 2.68152L134.741 8.33837C135.132 8.7289 135.765 8.7289 136.156 8.33837C136.546 7.94785 136.546 7.31468 136.156 6.92416L129.792 0.560197ZM130.084 333.991L130.085 1.2673L128.085 1.2673L128.084 333.991L130.084 333.991Z" fill="black" mask="url(#)"/>
<mask maskUnits="userSpaceOnUse" x="0" y="0" width="0" height="0" fill="black">
<rect fill="white" width="0" height="0"/>
</mask>
<path d="M103.362 334.698C103.753 335.089 104.386 335.089 104.776 334.698L111.14 328.334C111.531 327.944 111.531 327.311 111.14 326.92C110.75 326.53 110.117 326.53 109.726 326.92L104.069 332.577L98.4125 326.92C98.022 326.53 97.3888 326.53 96.9983 326.92C96.6077 327.311 96.6077 327.944 96.9983 328.334L103.362 334.698ZM104.776 0.560197C104.386 0.169672 103.753 0.169672 103.362 0.560196L96.9983 6.92416C96.6078 7.31468 96.6078 7.94785 96.9983 8.33837C97.3888 8.72889 98.022 8.72889 98.4125 8.33837L104.069 2.68152L109.726 8.33837C110.117 8.7289 110.75 8.7289 111.14 8.33837C111.531 7.94785 111.531 7.31468 111.14 6.92416L104.776 0.560197ZM105.069 333.991L105.069 1.2673L103.069 1.2673L103.069 333.991L105.069 333.991Z" fill="black" mask="url(#)"/>
<mask maskUnits="userSpaceOnUse" x="0" y="0" width="0" height="0" fill="black">
<rect fill="white" width="0" height="0"/>
</mask>
<path d="M78.3476 334.698C78.7381 335.089 79.3713 335.089 79.7618 334.698L86.1258 328.334C86.5163 327.944 86.5163 327.311 86.1258 326.92C85.7352 326.53 85.1021 326.53 84.7115 326.92L79.0547 332.577L73.3978 326.92C73.0073 326.53 72.3741 326.53 71.9836 326.92C71.5931 327.311 71.5931 327.944 71.9836 328.334L78.3476 334.698ZM79.7618 0.560197C79.3713 0.169672 78.7381 0.169672 78.3476 0.560196L71.9837 6.92416C71.5931 7.31468 71.5931 7.94785 71.9837 8.33837C72.3742 8.72889 73.0074 8.72889 73.3979 8.33837L79.0547 2.68152L84.7116 8.33837C85.1021 8.7289 85.7353 8.7289 86.1258 8.33837C86.5163 7.94785 86.5163 7.31468 86.1258 6.92416L79.7618 0.560197ZM80.0547 333.991L80.0547 1.2673L78.0547 1.2673L78.0547 333.991L80.0547 333.991Z" fill="black" mask="url(#)"/>
<mask maskUnits="userSpaceOnUse" x="0" y="0" width="0" height="0" fill="black">
<rect fill="white" width="0" height="0"/>
</mask>
<path d="M53.3324 334.698C53.723 335.089 54.3561 335.089 54.7467 334.698L61.1106 328.334C61.5011 327.944 61.5011 327.311 61.1106 326.92C60.7201 326.53 60.0869 326.53 59.6964 326.92L54.0396 332.577L48.3827 326.92C47.9922 326.53 47.359 326.53 46.9685 326.92C46.578 327.311 46.578 327.944 46.9685 328.334L53.3324 334.698ZM54.7467 0.560197C54.3562 0.169672 53.723 0.169672 53.3325 0.560196L46.9685 6.92416C46.578 7.31468 46.578 7.94785 46.9685 8.33837C47.3591 8.72889 47.9922 8.72889 48.3827 8.33837L54.0396 2.68152L59.6964 8.33837C60.087 8.7289 60.7201 8.7289 61.1107 8.33837C61.5012 7.94785 61.5012 7.31468 61.1107 6.92416L54.7467 0.560197ZM55.0396 333.991L55.0396 1.2673L53.0396 1.2673L53.0396 333.991L55.0396 333.991Z" fill="black" mask="url(#)"/>
<mask maskUnits="userSpaceOnUse" x="0" y="0" width="0" height="0" fill="black">
<rect fill="white" width="0" height="0"/>
</mask>
<path d="M28.3173 334.698C28.7078 335.089 29.341 335.089 29.7315 334.698L36.0955 328.334C36.486 327.944 36.486 327.311 36.0955 326.92C35.705 326.53 35.0718 326.53 34.6813 326.92L29.0244 332.577L23.3676 326.92C22.977 326.53 22.3439 326.53 21.9533 326.92C21.5628 327.311 21.5628 327.944 21.9533 328.334L28.3173 334.698ZM29.7316 0.560197C29.341 0.169672 28.7079 0.169672 28.3174 0.560196L21.9534 6.92416C21.5629 7.31468 21.5629 7.94785 21.9534 8.33837C22.3439 8.72889 22.9771 8.72889 23.3676 8.33837L29.0245 2.68152L34.6813 8.33837C35.0718 8.7289 35.705 8.7289 36.0955 8.33837C36.486 7.94785 36.486 7.31468 36.0955 6.92416L29.7316 0.560197ZM30.0244 333.991L30.0245 1.2673L28.0245 1.2673L28.0244 333.991L30.0244 333.991Z" fill="black" mask="url(#)"/>
</svg>
